<svg width="184" height="140" viewBox="0 0 184 140" fill="none" xmlns="http://www.w3.org/2000/svg">
<path d="M159.499 44.1769C159.499 44.1769 161.254 44.1421 162.792 44.5708C164.335 45.002 165.31 45.5078 165.31 45.5078C165.31 45.5078 166.444 44.7879 167.021 44.2883C167.593 43.7804 169.316 42.8899 170.852 43.1387C172.396 43.3896 173.485 44.4889 173.77 44.9574C173.77 44.9574 175.085 45.0372 176.303 44.9688C177.523 44.8932 179.781 45.3228 181.569 46.758C183.37 48.1911 185.01 50.3089 182.825 53.1362C182.825 53.1362 183.293 54.9294 182.647 56.2179C182.003 57.5127 180.335 58.217 180.335 58.217C180.335 58.217 179.309 61.2755 176.91 62.0617C174.509 62.8542 171.496 61.376 171.496 61.376C171.496 61.376 168.669 62.0617 166.623 61.9208C164.582 61.7746 162.348 60.0497 162.348 60.0497C162.348 60.0497 161.857 60.3426 161.396 61.0194C160.925 61.7036 157.408 66.6332 156.588 67.5014C156.588 67.5014 160.03 70.8445 163.433 72.238C166.84 73.6338 168.559 73.8561 169.461 74.1013C170.351 74.3563 172.323 75.4659 173.044 77.62C173.044 77.62 175.233 77.0753 176.662 77.1873C178.097 77.293 179.494 77.578 182.003 80.1581C184.511 82.7392 183.94 85.0732 183.545 86.1444C183.151 87.2131 181.66 88.1414 181.66 88.1414C181.66 88.1414 181.535 90.3022 180.244 91.4508C178.951 92.5932 177.202 92.3967 177.202 92.3967C177.202 92.3967 176.516 93.7029 174.727 94.247C172.93 94.7856 170.997 93.8474 170.095 93.1327C170.095 93.1327 166.406 93.4572 164.008 92.2723C161.612 91.0906 160.483 88.7708 160.483 88.7708C160.483 88.7708 156.415 87.1075 152.183 87.0728C147.956 87.0386 139.766 84.7519 137.083 82.7944C137.083 82.7944 133.01 84.6494 129.729 84.6986C129.729 84.6986 128.716 81.6267 125.167 79.4945C125.167 79.4945 117.561 83.7089 114.837 84.963C112.115 86.2172 107.321 86.6718 106.62 86.7475C106.62 86.7475 106.918 87.8981 106.564 89.7639C106.193 91.6257 105.054 95.2859 104.087 96.504C103.114 97.722 100.427 99.2246 98.8529 99.7993C97.2772 100.374 95.3078 100.877 93.6506 101.697C92.0076 102.523 89.9994 104.201 89.1206 104.992C89.1206 104.992 91.6582 105.634 92.4231 105.601C93.1861 105.572 94.5502 104.813 95.5572 104.424C96.5632 104.026 99.3901 103.488 101.649 105.175C103.907 106.859 105.089 109.042 105.011 110.697C104.948 112.343 103.878 113.54 102.3 114.356C102.3 114.356 101.829 116.683 99.861 117.397C97.8806 118.112 94.6019 117.463 94.6019 117.463C94.6019 117.463 93.0455 118.473 91.1816 118.577C89.3188 118.688 86.8119 117.075 86.4175 116.861C86.0184 116.642 85.6281 116.431 84.9445 116.431C84.2593 116.431 76.8844 117.041 74.5894 117.041C72.298 117.041 70.7212 115.926 69.7522 114.137C68.784 112.343 70.1414 109.476 71.0075 108.335C71.8622 107.181 73.231 105.604 73.402 105.28C73.5829 104.958 73.6239 104.424 73.1564 104.1C72.6899 103.778 71.1936 103.04 71.1936 103.04C71.1936 103.04 68.9265 107.579 68.0682 109.116C67.2058 110.657 66.094 112.377 63.9466 113.704C61.7931 115.031 57.2388 117.041 54.8434 118.508C52.438 119.975 51.0146 121.33 51.0146 121.33C51.0146 121.33 51.0395 125.649 51.1696 126.181C51.1696 126.181 53.3335 126.608 54.199 127.359C55.0605 128.115 55.9157 129.333 55.8794 131.017C55.8493 132.701 55.6238 134.682 53.5253 135.465C53.5253 135.465 52.9391 137.646 51.294 138.29C49.6437 138.937 47.9568 138.364 47.9568 138.364C47.9568 138.364 45.7037 139.506 43.3367 139.008C40.9728 138.507 39.0008 136.073 38.9645 133.595C38.9303 131.119 39.3553 122.164 39.3553 121.584C39.3553 121.012 39.3553 120.405 38.9303 119.619C38.498 118.829 37.4915 116.86 37.7491 115.603C37.9989 114.349 39.2864 112.877 40.4697 111.872C41.6514 110.871 43.0901 109.87 43.8044 107.86C44.5181 105.859 45.1276 103.098 45.2027 100.98C45.2748 98.8696 45.5314 91.9882 45.9957 90.1248C45.9957 90.1248 37.0991 88.1511 33.0869 83.5641C29.0753 78.975 28.3922 75.3181 27.2456 70.4096C26.0981 65.4971 24.6339 61.742 19.9615 59.2983C19.9615 59.2983 17.4576 60.5173 14.2389 59.1205C11.0105 57.7216 9.252 54.0661 7.53574 52.7707C5.81497 51.4843 1.13225 50.7437 0.195679 50.7701C0.195679 50.7701 5.7751 46.8985 9.61357 45.7513C13.447 44.6059 17.6093 44.2477 20.2221 46.3292C22.8359 48.3998 23.2298 51.9896 23.2298 51.9896C23.2298 51.9896 28.6092 54.2115 31.7289 58.0437C34.848 61.8812 35.7705 65.46 36.3827 67.8635C36.9948 70.2647 38.8855 75.0657 41.919 77.1838C44.9536 79.3037 48.5106 80.1947 50.3647 80.3201C50.3647 80.3201 55.5975 74.8535 57.3907 73.6688C59.1767 72.4866 61.1866 72.0175 62.0419 71.7692C62.906 71.522 65.886 70.5336 65.886 70.5336C65.886 70.5336 71.1601 65.9923 72.1736 65.2086C72.1736 65.2086 75.2326 59.9089 76.0918 58.651C76.9563 57.3993 79.2643 54.4513 79.2643 54.4513C79.2643 54.4513 77.1496 52.0382 77.1766 48.9138C77.1766 48.9138 78.4226 49.1615 79.2109 49.0843C79.2109 49.0843 78.1748 47.3294 78.6781 44.8549C79.1808 42.3821 81.8615 38.3664 85.4488 35.2811C85.4488 35.2811 85.3067 32.6689 86.0562 30.2023C86.8119 27.7243 88.3403 25.7469 88.3403 25.7469C88.3403 25.7469 86.7046 23.7235 86.4465 22.1366C86.4465 22.1366 89.5365 21.8469 91.6875 21.1342C93.8358 20.4112 95.5572 18.8884 95.5572 18.8884C95.5572 18.8884 99.6735 13.2074 104.689 11.4146C109.715 9.62184 114.832 10.1759 114.832 10.1759C114.832 10.1759 117.37 8.52457 118.416 8.16125C118.416 8.16125 116.424 5.91912 114.772 5.22927C114.772 5.22927 118.642 4.06051 122.206 4.33417C122.206 4.33417 122.271 1.85462 122.676 0.414763C122.676 0.414763 128.889 4.89636 131.722 6.14668C134.552 7.40094 139.96 9.19427 141.793 9.77015C143.619 10.3418 146.719 11.5329 147.374 14.8421C147.374 14.8421 150.387 16.1103 151.575 16.7572C152.758 17.4045 153.978 18.9459 154.227 19.5912C154.471 20.2318 154.721 21.0284 155.03 21.525C155.34 22.0262 155.87 22.3812 156.374 22.5569C156.877 22.7409 161.856 24.9618 164.155 26.6819C166.443 28.4089 169.568 31.3792 169.568 31.3792C169.568 31.3792 166.459 33.8592 165.694 35.0029C165.694 35.0029 164.764 38.122 163.259 40.3392C161.749 42.5612 159.498 43.4283 159.498 43.4283V44.1762" fill="white"/>
<path d="M124.845 4.77523C124.647 6.39751 125.891 7.824 125.891 7.824C124.078 6.96674 119.128 6.77419 119.128 6.77419C121.418 7.63197 123.035 9.53596 123.035 9.53596C121.131 9.53596 118.081 11.35 118.081 11.35C120.557 11.35 121.604 12.6786 121.604 12.6786C119.319 13.725 114.349 12.2027 108.756 13.0599C103.169 13.9177 99.5226 18.2992 99.5226 18.2992C101.899 17.4358 103.423 18.2021 103.423 18.2021C101.525 18.299 96.5721 21.4371 94.6663 22.4789C92.7606 23.5295 90.0023 23.432 90.0023 23.432C90.6621 24.8645 92.475 25.2489 92.475 25.2489C90.0022 26.9577 88.6629 30.9579 88.6629 30.9579C90.0934 29.3347 92.189 29.4294 92.6665 30.3862C93.1449 31.3388 92.4831 33.0994 90.5732 34.4774C89.0292 35.5912 85.2474 38.7617 83.2411 41.6173C81.2411 44.4715 80.9325 46.7263 80.9325 46.7263C83.3229 45.7441 84.1368 46.593 83.9555 47.7742C83.6404 49.7727 80.1133 51.3239 80.1133 51.3239C80.9664 52.7518 84.1993 52.8527 84.1993 52.8527C84.1993 52.8527 80.3865 57.036 78.8648 59.3185C77.3435 61.6068 74.7742 66.1811 74.296 66.8421C73.8233 67.5066 68.2072 71.9899 67.5382 72.6507C66.8711 73.3115 61.1546 74.7468 59.7266 75.4144C58.3039 76.0779 53.4461 80.6432 51.8295 82.7392C51.7295 82.8667 51.6397 82.9907 51.5458 83.1167C49.2347 82.9534 43.8588 82.2498 40.2167 79.2417C35.4727 75.3119 34.3637 70.6396 33.5467 67.4496C32.7324 64.2625 31.3989 61.841 29.5404 59.4655C27.6839 57.0933 21.9756 54.2532 21.0126 53.6607C21.0126 53.6607 20.3094 49.6477 18.3456 48.3209C16.2346 46.8961 13.4615 47.1852 12.2845 47.4796C11.929 47.5708 11.4464 47.7335 10.9193 47.9357C12.0227 48.0372 13.0267 48.2796 13.8363 48.4952C16.5273 49.1892 16.7036 51.0778 16.7036 51.0778C16.7036 51.0778 13.2441 47.3232 6.25525 50.0475C6.80775 50.1392 8.84352 50.5459 9.88228 51.9059C11.05 53.4478 11.3938 54.5839 14.7291 56.4279C17.7123 58.0839 19.9816 56.256 19.9816 56.256C19.9816 56.256 25.0659 58.8853 26.7307 61.8141C28.3255 64.6429 29.9144 69.0771 30.6554 73.0109C31.3992 76.937 32.9546 79.9777 36.4397 83.016C39.5355 85.7245 46.1566 87.5463 49.2498 88.1283C49.1648 88.4165 49.0709 88.7113 48.9735 89.0228C48.2095 91.4951 48.2098 95.9736 47.9237 100.83C47.6428 105.68 46.5955 108.439 45.449 110.535C44.3083 112.628 40.7893 114.632 40.5032 115.866C40.2171 117.107 41.8402 118.441 42.0247 120.34C42.215 122.243 41.744 130.241 41.744 131.382C41.744 132.528 41.4549 133.955 42.1214 135.003C42.7885 136.054 43.8377 136.62 45.2635 136.427C46.6877 136.242 47.2615 135.386 47.2615 135.386C47.2615 135.386 49.355 136.243 50.3056 135.665C51.2582 135.093 51.163 133.197 51.163 133.197C51.163 133.197 52.5929 133.198 52.9682 132.717C53.3595 132.238 53.4467 130.526 52.7812 129.67C52.1188 128.814 48.7836 128.53 48.7836 128.53C48.6012 128.143 48.0206 121.676 48.4975 120.245C48.9738 118.821 52.781 116.629 55.7378 114.914C58.6868 113.203 62.6836 111.774 64.1079 110.252C65.272 109.012 68.3357 102.862 69.4429 100.606C69.5087 100.466 73.1777 91.4348 81.9585 87.4355L82.0249 87.3901C75.6011 93.0982 75.0511 95.2432 75.0511 95.2432C75.0511 95.2432 79.3279 91.1812 86.7592 88.0351C91.7038 85.949 95.4918 85.0289 97.9633 84.7896C91.834 86.7405 86.601 89.7022 81.3309 92.8742C75.9484 96.1192 72.5228 100.348 72.3181 100.6C77.0724 102.492 76.7071 104.52 76.2951 105.679C75.8183 107.015 72.8701 109.968 72.3923 111.296C71.9165 112.633 72.1041 114.058 74.4856 114.251C76.8672 114.439 83.4357 113.583 85.5297 113.678C87.621 113.772 88.958 115.87 90.955 115.87C92.9577 115.87 93.9013 114.531 93.9013 114.531C95.3343 115.012 97.9031 115.294 98.9536 114.819C99.9989 114.347 99.8066 112.347 99.8066 112.347C101.525 112.056 102.569 111.203 102.283 110.252C101.999 109.3 101.329 108.067 99.9033 107.204C98.4728 106.345 97.142 106.631 96.097 107.111C95.0464 107.584 93.6198 108.438 92.0955 108.249C90.5737 108.067 84.8601 106.824 84.8601 106.824C86.3839 102.636 91.2412 99.5883 93.43 98.8326C95.6177 98.0644 99.8068 96.7317 101.429 95.4033C103.045 94.0718 103.996 89.3057 104.088 88.3567C104.186 87.4046 103.327 84.3602 103.327 84.3602C105.048 84.0752 109.515 84.1679 112.943 82.8333C114.963 82.045 118.77 80.0023 121.556 78.4603C115.443 74.9348 103.239 75.8275 103.239 75.8275C116.066 73.1567 124.938 76.5526 124.938 76.5526C129.127 77.7914 131.222 81.7899 131.222 81.7899C133.885 81.4074 137.315 79.7874 137.315 79.7874C144.674 75.8209 152.829 67.6051 152.829 67.6051C155.783 64.9411 158.735 59.5163 160.153 58.2755C161.587 57.0352 163.393 57.3229 163.393 57.3229C163.393 57.3229 164.731 59.1338 167.11 59.2292C169.485 59.3178 171.581 58.5607 171.581 58.5607C171.581 58.5607 175.11 59.9872 176.342 59.318C177.58 58.6557 178.245 56.0835 178.245 56.0835C178.245 56.0835 180.244 55.7062 180.338 54.7519C180.436 53.8029 179.671 52.2793 179.671 52.2793C179.671 52.2793 181.009 51.4199 181.193 50.8549C181.391 50.2812 180.721 49.5173 180.151 49.04C179.578 48.5668 177.485 47.42 176.442 47.6117C175.397 47.8056 172.155 47.5199 172.155 47.5199C172.155 47.5199 171.678 46.1854 170.822 45.8998C169.97 45.6117 169.014 45.9967 168.436 46.5663C167.869 47.139 166.161 48.2792 165.303 48.2792C164.443 48.2792 163.777 47.4199 161.115 46.9472C158.444 46.4709 156.828 47.7094 156.828 47.7094C156.828 47.7094 157.075 45.7401 156.937 44.3671C156.921 44.2474 156.374 44.3931 156.353 44.2729C156.28 42.972 156.353 41.0429 156.353 41.0429C156.062 41.8037 153.542 45.2386 151.354 44.0991C149.164 42.9526 149.781 38.8588 149.781 38.8588C153.212 36.7603 158.075 37.0473 158.075 37.0473C159.014 39.1397 157.779 41.2333 157.779 41.2333C161.872 39.9003 162.827 34.8568 163.307 33.8118C163.778 32.7617 165.965 31.5276 165.965 31.5276C165.965 31.5276 163.777 29.5293 161.489 28.1003C159.211 26.6729 155.02 24.8638 154.257 24.5788C153.5 24.2921 152.545 22.6695 152.353 22.1056C152.164 21.5298 151.594 19.8164 150.167 19.0503C148.737 18.2983 144.647 16.5791 144.647 16.5791C144.647 16.5791 145.216 15.7221 144.264 14.1977C143.312 12.6776 139.882 12.0111 134.266 10.1075C128.654 8.20064 124.846 4.77441 124.846 4.77441L124.845 4.77523ZM147.264 24.2149C148.112 24.2149 149.878 25.3628 151.11 25.439C151.11 25.439 150.036 26.9086 149.878 27.2906C149.734 27.6746 150.344 28.4444 150.344 28.4444C150.344 28.4444 147.888 26.5971 147.12 26.0596C146.345 25.5206 143.422 24.9033 143.422 24.9033C143.422 24.9033 146.426 24.2149 147.264 24.2149ZM115.594 32.94C116.558 32.939 117.573 33.0224 118.631 33.2154C127.097 34.7614 130.861 41.1149 130.861 41.1149C130.861 41.1149 124.493 35.9869 117.709 35.2736C110.916 34.5605 104.542 37.1101 104.542 37.1101C104.542 37.1101 108.845 32.947 115.594 32.94ZM116.55 40.7495C121.048 40.7526 124.401 42.1607 124.401 42.1607C118.37 41.2681 113.782 42.816 110.335 44.502C107.331 45.9688 103.777 49.184 98.131 50.52C92.1732 51.9277 87.4937 49.7822 87.4937 49.7822C95.6885 49.4935 99.5718 47.1777 107.694 42.8692C110.74 41.2515 113.851 40.7477 116.55 40.7495ZM124.461 46.9653C128.097 46.9827 131.159 47.8577 133.236 48.9238C137.211 50.9628 136.855 54.2304 136.785 54.6709C136.785 54.6849 136.785 54.7127 136.778 54.7231C136.778 54.7231 139.687 54.1448 141.721 52.8999C141.895 50.1726 143.449 47.4066 145.975 47.5503C148.809 47.7099 152.734 49.8038 152.734 49.8038C147.308 54.1848 137.356 57.8176 133.84 58.5508C133.84 58.5508 136.265 55.2341 132.887 51.5958C130.168 48.6762 120.987 46.868 112.245 50.1529C116.616 47.7882 120.825 46.9478 124.461 46.9653ZM154.764 69.4465C153.238 71.0263 150.884 73.3303 148.277 75.4818C145.564 77.7177 142.104 79.8891 139.757 81.2788C145.419 83.9791 152.11 84.3179 155.209 84.6494C158.823 85.0293 162.539 86.7407 162.539 86.7407C162.539 86.7407 163.018 88.8325 165.304 89.879C167.58 90.9301 170.917 90.3541 170.917 90.3541C170.917 90.3541 172.632 92.0662 174.058 91.5909C175.485 91.1172 175.581 89.21 175.581 89.21C175.581 89.21 177.388 90.1635 178.338 89.4996C179.296 88.8325 179.009 86.1686 179.009 86.1686C180.151 86.1686 181.482 85.4052 181.193 84.1685C180.913 82.9283 179.481 81.1233 177.962 80.2673C176.442 79.4095 174.728 80.1698 173.394 80.2673C172.061 80.3585 170.917 79.3136 170.627 78.6476C170.347 77.9837 169.485 76.741 168.346 76.5534C167.208 76.3683 164.634 75.6977 161.115 74.0817C159.014 73.1109 156.476 71.0016 154.764 69.4469L154.764 69.4465Z" fill="#0076B6"/>
</svg>
